PathFileType	4	(X/Y/Z)	c:/Users/goper/Files/vsCode/490R/osim_files/C17/C17_SSWS_01.trc
DataRate	CameraRate	NumFrames	NumMarkers	Units                	OrigDataRate	OrigDataStartFrame	OrigNumFrames
250.00	250.00	7	36	mm	250.0	834	2223
                Frame#	Time	LPSIS			LASIS			LTH1			LTH2			LTH3			LTH4			LLFE			LMFE			LSH1			LSH2			LSH3			LSH4			LLMAL			LMMAL			LCAL			LMTP5			LTOE			LMTP1			RPSIS			RASIS			RTH1			RTH2			RTH3			RTH4			RLFE			RMFE			RSH1			RSH2			RSH3			RSH4			RLMAL			RMMAL			RCAL			RMTP1			RTOE			RMTP5		
		X1	Y1	Z1	X2	Y2	Z2	X3	Y3	Z3	X4	Y4	Z4	X5	Y5	Z5	X6	Y6	Z6	X7	Y7	Z7	X8	Y8	Z8	X9	Y9	Z9	X10	Y10	Z10	X11	Y11	Z11	X12	Y12	Z12	X13	Y13	Z13	X14	Y14	Z14	X15	Y15	Z15	X16	Y16	Z16	X17	Y17	Z17	X18	Y18	Z18	X19	Y19	Z19	X20	Y20	Z20	X21	Y21	Z21	X22	Y22	Z22	X23	Y23	Z23	X24	Y24	Z24	X25	Y25	Z25	X26	Y26	Z26	X27	Y27	Z27	X28	Y28	Z28	X29	Y29	Z29	X30	Y30	Z30	X31	Y31	Z31	X32	Y32	Z32	X33	Y33	Z33	X34	Y34	Z34	X35	Y35	Z35	X36	Y36	Z36

834	3.33200	-87.33673	1092.36133	246.33110	-286.03772	1041.37134	338.02042	-202.68193	711.53107	362.38208	-215.33331	666.14691	353.36499	-262.59961	721.75958	361.00470	-265.32269	677.49194	352.61914	-216.22633	502.83533	318.13669	-202.97473	509.94217	195.60483	-135.91122	276.38101	311.11719	-134.17383	233.28767	304.47208	-198.00912	266.79166	306.00955	-185.96600	225.22903	298.83810	-129.69316	94.95554	276.27072	-139.18024	103.58986	188.71643	-52.30574	57.26540	235.04704	-244.71779	41.96834	297.93723	-301.49744	58.57287	228.05190	-281.42529	40.51115	178.87083	-90.25917	1086.60986	172.42949	-266.52557	1052.64819	71.15316	-276.20355	761.53088	4.75639	-291.73083	716.54706	10.92105	-336.89511	774.32898	16.23240	-343.23944	726.75592	16.79413	-358.31641	507.15268	26.50821	-357.91876	521.31531	152.22926	-203.69269	362.69177	25.39561	-186.85287	322.50888	37.64632	-260.46985	336.94812	29.53313	-237.06822	296.97214	41.50252	-116.68539	161.65187	71.43151	-163.03937	163.42877	154.04134	-47.99897	148.77805	130.94687	-263.37167	54.85431	130.52003	-278.13181	76.97469	84.78753	-207.20547	65.71358	28.20365
835	3.33600	-92.60497	1092.52234	246.29622	-291.30246	1041.37695	338.21481	-205.36035	712.19910	362.61353	-217.80240	666.55994	353.51416	-265.41321	721.86627	361.07895	-267.91226	677.52124	352.65347	-216.96262	503.14270	318.44388	-203.66563	510.41721	195.87326	-136.20575	276.67374	311.24280	-134.41754	233.56546	304.56421	-198.13361	266.96384	306.28168	-186.33063	225.41235	298.99960	-129.82947	95.17020	276.26620	-139.37834	103.81850	188.77747	-52.98909	56.96556	234.66002	-244.78857	41.95027	297.89600	-301.58066	58.51069	228.03415	-281.42010	40.18921	178.64197	-95.97395	1086.59583	172.33420	-271.51416	1052.34692	70.94097	-283.03534	762.25793	4.53625	-298.98203	717.34985	10.72281	-342.88208	775.20428	16.50050	-350.76047	728.22418	16.59280	-367.06384	508.34122	26.87536	-366.60001	522.28680	152.52301	-215.76944	360.57291	25.66471	-199.90071	320.00531	37.81832	-273.16260	336.15082	29.56774	-251.33347	296.09537	38.84488	-133.83743	157.18051	71.35416	-179.77078	160.16911	153.84955	-64.08913	144.65196	132.70482	-283.29486	53.84524	131.09373	-297.23349	76.45171	84.70202	-225.65895	63.32154	28.90026
836	3.34000	-97.89832	1092.65173	246.24338	-296.63608	1041.21375	338.46274	-208.16830	712.72540	362.87482	-220.33855	666.86908	353.62848	-268.32892	721.90662	361.19766	-270.35855	677.53961	352.68613	-217.65730	503.40952	318.64307	-204.27658	510.83148	196.09453	-136.55528	276.93915	311.37912	-134.73299	233.82863	304.70200	-198.58133	267.19714	306.44595	-186.64816	225.61610	299.18637	-130.00584	95.39927	276.28506	-139.26933	104.26297	189.20987	-53.09914	57.23660	234.64783	-244.79590	41.95062	297.89404	-301.94247	58.74095	228.15608	-281.57748	40.32139	178.59235	-101.23030	1086.77759	172.31509	-276.93933	1052.79102	71.14931	-289.67566	762.99548	4.19423	-305.88196	718.19415	10.41680	-351.94727	776.60223	14.46571	-357.12149	729.09418	16.86610	-375.80222	509.53757	27.12600	-375.19901	523.22437	152.80760	-227.90018	358.34268	25.95968	-213.05861	317.44373	38.06923	-285.89252	335.24487	29.56200	-265.49606	294.83371	37.80754	-151.04604	152.82262	71.31349	-197.10616	157.00171	153.94835	-82.92074	136.97487	130.81148	-302.93231	53.07544	131.14838	-316.54990	76.11184	84.56915	-246.08301	60.82821	27.94378
837	3.34400	-103.34403	1092.66431	246.17545	-301.91513	1041.06519	338.71033	-210.94252	713.21332	363.06885	-222.92001	667.20105	353.71408	-271.14978	721.87878	361.27359	-272.79449	677.50092	352.74768	-218.46625	503.64355	318.86292	-205.24722	511.18713	196.27579	-136.87810	277.23453	311.53940	-135.07950	234.09850	304.88007	-198.94928	267.35532	306.65994	-186.92665	225.81033	299.35812	-130.20912	95.59710	276.27255	-139.79684	105.32600	189.03287	-52.47257	58.14421	235.14317	-244.82051	41.93928	297.90686	-301.62051	58.29204	228.04073	-281.56848	40.35025	179.92464	-106.57102	1086.83350	172.27994	-282.13654	1052.96082	71.33640	-296.52258	763.57812	3.89419	-313.12457	718.84399	10.19153	-357.65042	777.37671	13.43673	-359.92737	728.18121	18.42392	-384.44489	510.81628	27.32997	-383.79221	524.03802	153.12090	-240.03517	356.10355	26.23817	-228.44151	313.74356	38.47264	-298.75381	334.58871	29.56495	-279.04993	293.34253	38.44957	-168.35446	148.58997	71.27243	-214.24727	153.83745	153.92001	-100.70851	131.13283	130.76277	-322.56427	52.53704	131.34741	-335.66953	75.74812	84.69720	-265.39667	58.76209	28.07937
838	3.34800	-108.59938	1092.65552	246.06985	-307.06735	1040.96008	338.97379	-213.58679	713.73029	363.29526	-225.46039	667.41400	353.80936	-273.98401	721.72034	361.31744	-275.30853	677.43756	352.72531	-219.33270	503.86542	319.04306	-206.02861	511.58041	196.52440	-137.27164	277.49585	311.65103	-135.36696	234.38930	304.99359	-199.27682	267.56558	306.88345	-187.21466	226.00842	299.52057	-130.40489	95.81442	276.26761	-140.24222	105.43423	189.02852	-52.70945	58.37265	235.00359	-244.86549	41.92158	297.88165	-301.67657	58.20852	228.07338	-281.64743	40.33244	179.92163	-111.88842	1086.87073	172.17981	-287.39581	1053.11902	71.55231	-303.14856	764.20477	3.53279	-320.14545	719.41840	9.97181	-364.18408	778.15759	13.37934	-366.73087	728.95648	18.32975	-392.93951	511.91086	27.47920	-392.22250	524.83997	153.36336	-252.17754	353.74173	26.55296	-243.33827	310.04572	37.39910	-311.34448	333.72528	29.92600	-292.33441	292.01050	38.94890	-185.90996	144.39545	71.28616	-231.59509	150.67375	153.96579	-118.93589	125.17614	130.74017	-342.20831	52.04371	131.45949	-354.75482	75.82037	84.41047	-285.22794	57.02581	28.19460
839	3.35200	-113.89513	1092.54443	245.95598	-312.34131	1040.68140	339.18851	-216.39046	714.12225	363.43814	-227.99896	667.60321	353.83353	-276.83740	721.59399	361.41925	-277.59351	677.33984	352.78061	-220.25743	504.07532	319.24133	-206.97983	511.94913	196.80602	-137.70908	277.77902	311.79831	-135.65100	234.67699	305.10263	-199.60602	267.73904	307.07422	-187.54355	226.22314	299.67529	-130.73381	96.06095	276.24008	-140.36705	105.66568	189.02747	-52.49233	58.87028	235.13831	-244.85759	41.92387	297.89816	-301.71741	58.14443	228.09995	-281.76431	40.36564	179.91083	-117.34404	1086.74890	172.08647	-292.75763	1053.27075	71.82130	-309.81070	764.74738	3.22671	-327.20624	719.91656	9.76594	-370.86157	778.82971	13.15924	-373.88904	729.83026	18.23114	-401.35037	512.95374	27.72544	-400.55966	525.51801	153.67484	-264.35117	351.42804	26.86893	-256.45468	307.52029	37.73309	-324.01624	332.81076	30.09659	-306.08005	290.59882	39.00750	-203.44714	140.37813	71.30980	-248.93637	147.71054	154.20039	-136.93556	119.61247	130.69899	-362.02359	51.70041	131.65074	-374.22879	75.34601	84.66730	-304.49377	55.21428	28.57418
840	3.35600	-119.27524	1092.34705	245.83994	-317.52521	1040.49475	339.36285	-219.22357	714.41907	363.58591	-228.81540	669.00800	354.65643	-279.76749	721.46307	361.42847	-280.03888	677.21136	352.82678	-221.12794	504.31110	319.47662	-207.32822	512.28137	196.73213	-138.10638	278.07892	311.93521	-136.00539	234.97397	305.20276	-200.29292	267.32416	307.25208	-187.89503	226.44810	299.85556	-130.93190	96.32042	276.26794	-140.47087	105.90911	189.04485	-52.58447	59.14585	235.13486	-244.89624	41.92095	297.88815	-301.57300	58.28966	228.46919	-281.82880	40.39505	179.92603	-122.60413	1086.59094	171.95886	-298.12485	1053.26160	72.08872	-316.60019	765.16125	3.00916	-334.24380	720.33130	9.66096	-377.37500	779.39856	13.13086	-380.75150	730.57654	18.19265	-409.71237	513.92517	27.98375	-408.58688	526.06427	153.96370	-276.64795	349.06564	27.21470	-269.35562	305.46490	38.43324	-336.73251	331.85233	30.21740	-320.73935	288.15588	41.13497	-221.21872	136.42696	71.34436	-266.38434	144.85060	154.27361	-154.85240	114.30161	130.54332	-381.63968	51.48836	131.81497	-393.01517	75.36618	85.49650	-324.27780	53.56752	28.81006
